<svg xmlns="http://www.w3.org/2000/svg" xmlns:xlink="http://www.w3.org/1999/xlink" viewBox="0 0 140.33 116.89"><defs><style>.cls-1{font-size:30.31px;fill:#aaa7a2;font-family:NotoSansKR-Medium-KSCpc-EUC-H, Noto Sans KR;}.cls-2{fill:url(#linear-gradient);}.cls-3{fill:url(#linear-gradient-2);}.cls-4{fill:url(#linear-gradient-3);}.cls-5{fill:url(#linear-gradient-4);}.cls-6{fill:url(#linear-gradient-5);}</style><linearGradient id="linear-gradient" y1="24.25" x2="41.53" y2="24.25" gradientUnits="userSpaceOnUse"><stop offset="0" stop-color="#ededed"/><stop offset="0.91" stop-color="#585858"/></linearGradient><linearGradient id="linear-gradient-2" x1="60.67" y1="35.91" x2="103.07" y2="35.91" xlink:href="#linear-gradient"/><linearGradient id="linear-gradient-3" x1="37.4" y1="37.88" x2="81.7" y2="37.88" xlink:href="#linear-gradient"/><linearGradient id="linear-gradient-4" x1="71.32" y1="20.66" x2="124.65" y2="20.66" xlink:href="#linear-gradient"/><linearGradient id="linear-gradient-5" x1="109.87" y1="15.43" x2="140.33" y2="15.43" xlink:href="#linear-gradient"/></defs><g id="Layer_2" data-name="Layer 2"><g id="Layer_2-2" data-name="Layer 2"><text class="cls-1" transform="translate(38.05 85.16)">알라딘</text><path class="cls-2" d="M24.65,18.42c-6.67-1.26-10.16-.48-15.09,0s-11.71,6-8.9,6.48,19.64-.67,25.15.1c2.11.3,8.48,2.69,15.72,5.76A111.39,111.39,0,0,0,37.4,20C32.38,19.54,27.57,19,24.65,18.42Z"/><path class="cls-3" d="M84.46,24.24l-12-8.19A106,106,0,0,1,60.67,20a108.05,108.05,0,0,1,21,35.77h15S96.44,50.25,90.06,45c1.33-1.11,6.78-3.56,13-6.12C97.61,33.3,91,28.69,84.46,24.24Z"/><path class="cls-4" d="M54.16,21c-3.54,0-10.32-.43-16.76-1a111.39,111.39,0,0,1,4.13,10.76C53.27,35.75,67.3,42.52,69.16,45a25.38,25.38,0,0,0-7.84,10.74H81.7A108.05,108.05,0,0,0,60.67,20,27.93,27.93,0,0,1,54.16,21Z"/><path class="cls-5" d="M115.49,24.59a82.37,82.37,0,0,1-10-1.33c-1.38-.29-18.21-3.92-24.82-7.47h-.21v-.33H78.84V13.22a5.58,5.58,0,1,0-3.88,0v2.23H73.21v.31l-.73.29,12,8.19c6.5,4.45,13.15,9.06,18.61,14.67,7.29-3,15.66-6.17,19.79-7.52.6-.2,1.2-.37,1.79-.53a37.53,37.53,0,0,0-4.85-3.56C118.36,26.42,116.83,25.6,115.49,24.59Z"/><path class="cls-6" d="M127.5,0C119.4-.27,112.74,1.22,111,6.72s-2.61,15.38,7.84,16c4.94,0,12.31-2,11.32-7.55s-9.82-4.47-10.74-3.19a2,2,0,0,0,1.45,3.19c1.75.29,3.83-.77,4.07.29s-.29,1.74-2,2-7.94.46-8.13-4.35,4-7.74,10.16-7.55a9.05,9.05,0,0,1,8.7,8.42c.17,2.88-.66,9.79-9.86,10.16-4.87.19-6.21.51-8.24.46,1.34,1,2.87,1.83,4.31,2.71a37.53,37.53,0,0,1,4.85,3.56C131.59,29,137.82,29.29,140,18.91,141.89,8.58,135.6.35,127.5,0Z"/></g></g></svg>