<svg xmlns="http://www.w3.org/2000/svg" xmlns:xlink="http://www.w3.org/1999/xlink" viewBox="0 0 147.32 59.1"><defs><style>.cls-1,.cls-2,.cls-3,.cls-4,.cls-5{stroke:#000;stroke-miterlimit:10;stroke-width:0.91px;}.cls-1{fill:url(#linear-gradient);}.cls-2{fill:url(#linear-gradient-2);}.cls-3{fill:url(#linear-gradient-3);}.cls-4{fill:url(#linear-gradient-4);}.cls-5{fill:url(#linear-gradient-5);}</style><linearGradient id="linear-gradient" x1="0.46" y1="25.76" x2="43.79" y2="25.76" gradientUnits="userSpaceOnUse"><stop offset="0" stop-color="#fff"/><stop offset="1" stop-color="#fbca68"/></linearGradient><linearGradient id="linear-gradient-2" x1="63.76" y1="37.92" x2="107.99" y2="37.92" xlink:href="#linear-gradient"/><linearGradient id="linear-gradient-3" x1="39.47" y1="39.98" x2="85.69" y2="39.98" xlink:href="#linear-gradient"/><linearGradient id="linear-gradient-4" x1="74.87" y1="22.01" x2="130.51" y2="22.01" xlink:href="#linear-gradient"/><linearGradient id="linear-gradient-5" x1="115.09" y1="16.55" x2="146.86" y2="16.55" xlink:href="#linear-gradient"/></defs><g id="Layer_2" data-name="Layer 2"><g id="Layer_2-2" data-name="Layer 2"><path class="cls-1" d="M26.18,19.68c-7-1.31-10.6-.51-15.75,0s-12.21,6.26-9.29,6.76,20.49-.71,26.25.1c2.19.31,8.84,2.81,16.4,6a113.43,113.43,0,0,0-4.32-11.23C34.24,20.84,29.22,20.25,26.18,19.68Z"/><path class="cls-2" d="M88.58,25.75,76.07,17.21a110.31,110.31,0,0,1-12.31,4.11A112.79,112.79,0,0,1,85.69,58.64h15.69s-.3-5.75-7-11.2c1.39-1.16,7.07-3.72,13.57-6.39C102.3,35.2,95.36,30.39,88.58,25.75Z"/><path class="cls-3" d="M57,22.4c-3.7,0-10.77-.45-17.5-1.08a113.43,113.43,0,0,1,4.32,11.23C56,37.75,70.68,44.81,72.61,47.44a26.46,26.46,0,0,0-8.17,11.2H85.69A112.79,112.79,0,0,0,63.76,21.32,29.1,29.1,0,0,1,57,22.4Z"/><path class="cls-4" d="M121,26.11a85.93,85.93,0,0,1-10.48-1.39c-1.44-.3-19-4.08-25.9-7.79h-.22v-.34H82.72V14.25a5.83,5.83,0,1,0-4,0v2.33H76.84v.32l-.77.31,12.51,8.54c6.78,4.64,13.72,9.45,19.41,15.3,7.61-3.13,16.35-6.43,20.65-7.85.63-.2,1.25-.38,1.87-.55a40.08,40.08,0,0,0-5.06-3.71C124,28,122.35,27.17,121,26.11Z"/><path class="cls-5" d="M133.48.5c-8.45-.33-15.39,1.23-17.26,7s-2.73,16.05,8.18,16.66c5.14,0,12.84-2.1,11.81-7.87S126,11.58,125,12.91a2.07,2.07,0,0,0,1.52,3.34c1.81.3,4-.81,4.24.3s-.31,1.82-2.12,2.12-8.28.48-8.48-4.54,4.21-8.08,10.6-7.88,8.9,5.78,9.08,8.78-.69,10.22-10.3,10.6c-5.07.21-6.47.53-8.59.48,1.4,1.06,3,1.91,4.5,2.83a40.08,40.08,0,0,1,5.06,3.71c7.24-1.94,13.74-1.64,16-12.47C148.5,9.41,141.94.83,133.48.5Z"/></g></g></svg>